<svg width="24" height="24" viewBox="0 0 24 24" fill="none" xmlns="http://www.w3.org/2000/svg">
<mask id="path-1-inside-1_4409_3923" fill="white">
<path fill-rule="evenodd" clip-rule="evenodd" d="M2.5 12.0651C2.5 8.49552 3.47859 6.18121 5.00182 4.74305C6.54078 3.29002 8.87941 2.5 12.0683 2.5C15.3323 2.5 17.6229 3.29301 19.1031 4.72898C20.5748 6.15676 21.5 8.46825 21.5 12.0651C21.5 15.59 20.5785 17.8688 19.1079 19.2826C17.6265 20.7069 15.3324 21.5 12.0683 21.5C8.87938 21.5 6.53728 20.7099 4.99688 19.2686C3.47446 17.8441 2.5 15.5624 2.5 12.0651ZM12.0683 1C5.23603 1 1 4.38462 1 12.0651C1 19.6154 5.23603 23 12.0683 23C19.0373 23 23 19.6154 23 12.0651C23 4.38462 19.0373 1 12.0683 1ZM12.75 5.25V7.25H13.5C14.8807 7.25 16 8.36929 16 9.75V10.25H14.5V9.75C14.5 9.19772 14.0523 8.75 13.5 8.75H10.5C9.94772 8.75 9.5 9.19772 9.5 9.75V14.25C9.5 14.8023 9.94772 15.25 10.5 15.25H13.5C14.0523 15.25 14.5 14.8023 14.5 14.25V13.75H16V14.25C16 15.6307 14.8807 16.75 13.5 16.75H10.5C9.11929 16.75 8 15.6307 8 14.25V9.75C8 8.36929 9.11929 7.25 10.5 7.25H11.25L11.25 5.25H12.75ZM12.75 16.755H11.25V18.755H12.75V16.755Z"/>
</mask>
<path fill-rule="evenodd" clip-rule="evenodd" d="M2.5 12.0651C2.5 8.49552 3.47859 6.18121 5.00182 4.74305C6.54078 3.29002 8.87941 2.5 12.0683 2.5C15.3323 2.5 17.6229 3.29301 19.1031 4.72898C20.5748 6.15676 21.5 8.46825 21.5 12.0651C21.5 15.59 20.5785 17.8688 19.1079 19.2826C17.6265 20.7069 15.3324 21.5 12.0683 21.5C8.87938 21.5 6.53728 20.7099 4.99688 19.2686C3.47446 17.8441 2.5 15.5624 2.5 12.0651ZM12.0683 1C5.23603 1 1 4.38462 1 12.0651C1 19.6154 5.23603 23 12.0683 23C19.0373 23 23 19.6154 23 12.0651C23 4.38462 19.0373 1 12.0683 1ZM12.75 5.25V7.25H13.5C14.8807 7.25 16 8.36929 16 9.75V10.25H14.5V9.75C14.5 9.19772 14.0523 8.75 13.5 8.75H10.5C9.94772 8.75 9.5 9.19772 9.5 9.75V14.25C9.5 14.8023 9.94772 15.25 10.5 15.25H13.5C14.0523 15.25 14.5 14.8023 14.5 14.25V13.75H16V14.25C16 15.6307 14.8807 16.75 13.5 16.75H10.5C9.11929 16.75 8 15.6307 8 14.25V9.75C8 8.36929 9.11929 7.25 10.5 7.25H11.25L11.25 5.25H12.75ZM12.75 16.755H11.25V18.755H12.75V16.755Z" fill="#9599A6"/>
<path d="M5.00182 4.74305L5.68833 5.47016L5.00182 4.74305ZM2.5 12.0651H3.5H2.5ZM12.0683 2.5V3.5V2.5ZM19.1031 4.72898L18.4067 5.44672L19.1031 4.72898ZM19.1079 19.2826L18.4149 18.5617L19.1079 19.2826ZM4.99688 19.2686L4.31366 19.9988H4.31366L4.99688 19.2686ZM12.75 7.25H11.75V8.25H12.75V7.25ZM12.75 5.25H13.75V4.25H12.75V5.25ZM16 10.25V11.25H17V10.25H16ZM14.5 10.25H13.5V11.25H14.5V10.25ZM14.5 13.75V12.75H13.5V13.75H14.5ZM16 13.75H17V12.75H16V13.75ZM11.25 7.25V8.25H12.25V7.25L11.25 7.25ZM11.25 5.25V4.25H10.25V5.25L11.25 5.25ZM11.25 16.755V15.755H10.25V16.755H11.25ZM12.75 16.755H13.75V15.755H12.75V16.755ZM11.25 18.755H10.25V19.755H11.25V18.755ZM12.75 18.755V19.755H13.75V18.755H12.75ZM4.31531 4.01593C2.53267 5.69902 1.5 8.31422 1.5 12.0651H3.5C3.5 8.67681 4.42451 6.66341 5.68833 5.47016L4.31531 4.01593ZM12.0683 1.5C8.72725 1.5 6.10331 2.32777 4.31531 4.01593L5.68833 5.47016C6.97826 4.25227 9.03156 3.5 12.0683 3.5V1.5ZM19.7994 4.01124C18.0652 2.32881 15.4801 1.5 12.0683 1.5V3.5C15.1846 3.5 17.1806 4.25722 18.4067 5.44672L19.7994 4.01124ZM22.5 12.0651C22.5 8.30513 21.5307 5.69088 19.7994 4.01124L18.4067 5.44672C19.6188 6.62263 20.5 8.63137 20.5 12.0651H22.5ZM19.801 20.0035C21.5319 18.3394 22.5 15.7577 22.5 12.0651H20.5C20.5 15.4223 19.625 17.3983 18.4149 18.5617L19.801 20.0035ZM12.0683 22.5C15.48 22.5 18.0663 21.6712 19.801 20.0035L18.4149 18.5617C17.1866 19.7426 15.1847 20.5 12.0683 20.5V22.5ZM4.31366 19.9988C6.10215 21.6722 8.72726 22.5 12.0683 22.5V20.5C9.0315 20.5 6.97241 19.7475 5.6801 18.5384L4.31366 19.9988ZM1.5 12.0651C1.5 15.7485 2.53131 18.3311 4.31366 19.9988L5.6801 18.5384C4.41762 17.3571 3.5 15.3763 3.5 12.0651H1.5ZM2 12.0651C2 8.4053 3.0054 5.94034 4.65856 4.37949C6.32222 2.80873 8.80366 2 12.0683 2V0C8.50069 0 5.44797 0.883576 3.28554 2.92525C1.11262 4.97683 0 8.04442 0 12.0651H2ZM12.0683 22C8.80365 22 6.31989 21.1912 4.65527 19.6337C3.00264 18.0874 2 15.655 2 12.0651H0C0 16.0255 1.11537 19.0605 3.28883 21.0941C5.4503 23.1165 8.50071 24 12.0683 24V22ZM22 12.0651C22 15.6734 21.0554 18.1039 19.4545 19.643C17.8462 21.1892 15.4058 22 12.0683 22V24C15.6998 24 18.7252 23.1185 20.8406 21.0848C22.9632 19.0441 24 16.0071 24 12.0651H22ZM12.0683 2C15.4058 2 17.8438 2.81073 19.4512 4.37011C21.053 5.92403 22 8.38712 22 12.0651H24C24 8.0626 22.9657 4.99314 20.8438 2.93463C18.7276 0.881583 15.6998 0 12.0683 0V2ZM13.75 7.25V5.25H11.75V7.25H13.75ZM13.5 6.25H12.75V8.25H13.5V6.25ZM17 9.75C17 7.817 15.433 6.25 13.5 6.25V8.25C14.3284 8.25 15 8.92157 15 9.75H17ZM17 10.25V9.75H15V10.25H17ZM14.5 11.25H16V9.25H14.5V11.25ZM13.5 9.75V10.25H15.5V9.75H13.5ZM13.5 9.75H15.5C15.5 8.64543 14.6046 7.75 13.5 7.75V9.75ZM10.5 9.75H13.5V7.75H10.5V9.75ZM10.5 9.75V7.75C9.39543 7.75 8.5 8.64543 8.5 9.75H10.5ZM10.5 14.25V9.75H8.5V14.25H10.5ZM10.5 14.25H8.5C8.5 15.3546 9.39543 16.25 10.5 16.25V14.25ZM13.5 14.25H10.5V16.25H13.5V14.25ZM13.5 14.25V16.25C14.6046 16.25 15.5 15.3546 15.5 14.25H13.5ZM13.5 13.75V14.25H15.5V13.75H13.5ZM16 12.75H14.5V14.75H16V12.75ZM17 14.25V13.75H15V14.25H17ZM13.5 17.75C15.433 17.75 17 16.183 17 14.25H15C15 15.0784 14.3284 15.75 13.5 15.75V17.75ZM10.5 17.75H13.5V15.75H10.5V17.75ZM7 14.25C7 16.183 8.567 17.75 10.5 17.75V15.75C9.67157 15.75 9 15.0784 9 14.25H7ZM7 9.75V14.25H9V9.75H7ZM10.5 6.25C8.567 6.25 7 7.817 7 9.75H9C9 8.92157 9.67157 8.25 10.5 8.25V6.25ZM11.25 6.25H10.5V8.25H11.25V6.25ZM10.25 5.25L10.25 7.25L12.25 7.25L12.25 5.25L10.25 5.25ZM12.75 4.25H11.25V6.25H12.75V4.25ZM11.25 17.755H12.75V15.755H11.25V17.755ZM12.25 18.755V16.755H10.25V18.755H12.25ZM12.75 17.755H11.25V19.755H12.75V17.755ZM11.75 16.755V18.755H13.75V16.755H11.75Z" fill="#9599A6" mask="url(#path-1-inside-1_4409_3923)"/>
</svg>
