<svg width="24" height="24" viewBox="0 0 24 24" fill="none" xmlns="http://www.w3.org/2000/svg">
<mask id="path-1-inside-1_4409_3913" fill="white">
<path fill-rule="evenodd" clip-rule="evenodd" d="M1 12.0651C1 4.38462 5.23603 1 12.0683 1C19.0373 1 23 4.38462 23 12.0651C23 19.6154 19.0373 23 12.0683 23C5.23603 23 1 19.6154 1 12.0651ZM12.75 5.25V7.25H13.5C14.8807 7.25 16 8.36929 16 9.75V10.25H14.5V9.75C14.5 9.19772 14.0523 8.75 13.5 8.75H10.5C9.94772 8.75 9.5 9.19772 9.5 9.75V14.25C9.5 14.8023 9.94772 15.25 10.5 15.25H13.5C14.0523 15.25 14.5 14.8023 14.5 14.25V13.75H16V14.25C16 15.6307 14.8807 16.75 13.5 16.75H10.5C9.11929 16.75 8 15.6307 8 14.25V9.75C8 8.36929 9.11929 7.25 10.5 7.25H11.25V5.25H12.75ZM12.75 16.755H11.25V18.755H12.75V16.755Z"/>
</mask>
<path fill-rule="evenodd" clip-rule="evenodd" d="M1 12.0651C1 4.38462 5.23603 1 12.0683 1C19.0373 1 23 4.38462 23 12.0651C23 19.6154 19.0373 23 12.0683 23C5.23603 23 1 19.6154 1 12.0651ZM12.75 5.25V7.25H13.5C14.8807 7.25 16 8.36929 16 9.75V10.25H14.5V9.75C14.5 9.19772 14.0523 8.75 13.5 8.75H10.5C9.94772 8.75 9.5 9.19772 9.5 9.75V14.25C9.5 14.8023 9.94772 15.25 10.5 15.25H13.5C14.0523 15.25 14.5 14.8023 14.5 14.25V13.75H16V14.25C16 15.6307 14.8807 16.75 13.5 16.75H10.5C9.11929 16.75 8 15.6307 8 14.25V9.75C8 8.36929 9.11929 7.25 10.5 7.25H11.25V5.25H12.75ZM12.75 16.755H11.25V18.755H12.75V16.755Z" fill="#E02B57"/>
<path d="M12.75 7.25H11.25V8.75H12.75V7.25ZM12.75 5.25H14.25V3.75H12.75V5.25ZM16 10.25V11.75H17.5V10.25H16ZM14.5 10.25H13V11.75H14.5V10.25ZM14.5 13.75V12.25H13V13.75H14.5ZM16 13.75H17.5V12.25H16V13.75ZM11.25 7.25V8.75H12.75V7.25H11.25ZM11.25 5.25V3.75H9.75V5.25H11.25ZM11.25 16.755V15.255H9.75V16.755H11.25ZM12.75 16.755H14.25V15.255H12.75V16.755ZM11.25 18.755H9.75V20.255H11.25V18.755ZM12.75 18.755V20.255H14.25V18.755H12.75ZM12.0683 -0.5C8.42495 -0.5 5.22941 0.402287 2.94228 2.56169C0.639425 4.73595 -0.5 7.9542 -0.5 12.0651H2.5C2.5 8.49552 3.47859 6.18121 5.00182 4.74305C6.54079 3.29002 8.87941 2.5 12.0683 2.5V-0.5ZM24.5 12.0651C24.5 7.98146 23.4439 4.76041 21.192 2.57576C18.9485 0.399297 15.7733 -0.5 12.0683 -0.5V2.5C15.3323 2.5 17.6229 3.29301 19.1031 4.72898C20.5748 6.15676 21.5 8.46825 21.5 12.0651H24.5ZM12.0683 24.5C15.7733 24.5 18.945 23.6008 21.1871 21.4452C23.4402 19.2791 24.5 16.0905 24.5 12.0651H21.5C21.5 15.59 20.5785 17.8688 19.1079 19.2826C17.6265 20.7069 15.3324 21.5 12.0683 21.5V24.5ZM-0.5 12.0651C-0.5 16.1181 0.643551 19.3038 2.94722 21.4592C5.23291 23.5978 8.42497 24.5 12.0683 24.5V21.5C8.87938 21.5 6.53728 20.7099 4.99688 19.2686C3.47446 17.8441 2.5 15.5624 2.5 12.0651H-0.5ZM14.25 7.25V5.25H11.25V7.25H14.25ZM13.5 5.75H12.75V8.75H13.5V5.75ZM17.5 9.75C17.5 7.54086 15.7091 5.75 13.5 5.75V8.75C14.0523 8.75 14.5 9.19772 14.5 9.75H17.5ZM17.5 10.25V9.75H14.5V10.25H17.5ZM14.5 11.75H16V8.75H14.5V11.75ZM13 9.75V10.25H16V9.75H13ZM13.5 10.25C13.2239 10.25 13 10.0261 13 9.75H16C16 8.36929 14.8807 7.25 13.5 7.25V10.25ZM10.5 10.25H13.5V7.25H10.5V10.25ZM11 9.75C11 10.0261 10.7761 10.25 10.5 10.25V7.25C9.11929 7.25 8 8.36929 8 9.75H11ZM11 14.25V9.75H8V14.25H11ZM10.5 13.75C10.7761 13.75 11 13.9739 11 14.25H8C8 15.6307 9.11929 16.75 10.5 16.75V13.75ZM13.5 13.75H10.5V16.75H13.5V13.75ZM13 14.25C13 13.9739 13.2239 13.75 13.5 13.75V16.75C14.8807 16.75 16 15.6307 16 14.25H13ZM13 13.75V14.25H16V13.75H13ZM16 12.25H14.5V15.25H16V12.25ZM17.5 14.25V13.75H14.5V14.25H17.5ZM13.5 18.25C15.7091 18.25 17.5 16.4591 17.5 14.25H14.5C14.5 14.8023 14.0523 15.25 13.5 15.25V18.25ZM10.5 18.25H13.5V15.25H10.5V18.25ZM6.5 14.25C6.5 16.4591 8.29086 18.25 10.5 18.25V15.25C9.94772 15.25 9.5 14.8023 9.5 14.25H6.5ZM6.5 9.75V14.25H9.5V9.75H6.5ZM10.5 5.75C8.29086 5.75 6.5 7.54086 6.5 9.75H9.5C9.5 9.19772 9.94772 8.75 10.5 8.75V5.75ZM11.25 5.75H10.5V8.75H11.25V5.75ZM9.75 5.25V7.25H12.75V5.25H9.75ZM12.75 3.75H11.25V6.75H12.75V3.75ZM11.25 18.255H12.75V15.255H11.25V18.255ZM12.75 18.755V16.755H9.75V18.755H12.75ZM12.75 17.255H11.25V20.255H12.75V17.255ZM11.25 16.755V18.755H14.25V16.755H11.25Z" fill="#E02B57" mask="url(#path-1-inside-1_4409_3913)"/>
</svg>
