<svg width="24" height="24" viewBox="0 0 24 24" fill="none" xmlns="http://www.w3.org/2000/svg">
<path fill-rule="evenodd" clip-rule="evenodd" d="M9 1.25C4.71979 1.25 1.25 4.71979 1.25 9V21C1.25 21.9665 2.0335 22.75 3 22.75H15C19.2802 22.75 22.75 19.2802 22.75 15V9C22.75 4.71979 19.2802 1.25 15 1.25H9ZM2.75 9C2.75 5.54822 5.54822 2.75 9 2.75H15C18.4518 2.75 21.25 5.54822 21.25 9V15C21.25 18.4518 18.4518 21.25 15 21.25H3C2.86193 21.25 2.75 21.1381 2.75 21V9ZM8.69995 9.5H7.19995V16H8.69995V9.5ZM11.2 11H12.7V16H11.2V11ZM16.7 8H15.2V16H16.7V8Z" fill="#9599A6"/>
</svg>
